<?xml version="1.0" ?><svg xmlns="http://www.w3.org/2000/svg" width="24" height="24" viewBox="0 0 24 24" fill="none"><path d="M7.29289 10.1213C7.68342 9.7308 8.31658 9.7308 8.70711 10.1213L9.41421 10.8284L10.9832 9.25945C11.3737 8.86892 12.0069 8.86892 12.3974 9.25945C12.7879 9.64997 12.7879 10.2831 12.3974 10.6737L10.1213 12.9498C9.73079 13.3403 9.09763 13.3403 8.70711 12.9498L7.29289 11.5355C6.90237 11.145 6.90237 10.5118 7.29289 10.1213Z" fill="#0D4DDF"/><path d="M8.70711 15.569C8.31658 15.1785 7.68342 15.1785 7.29289 15.569C6.90237 15.9595 6.90237 16.5927 7.29289 16.9832L8.70711 18.3974C9.09763 18.7879 9.73079 18.7879 10.1213 18.3974L12.3974 16.1213C12.7879 15.7308 12.7879 15.0976 12.3974 14.7071C12.0069 14.3166 11.3737 14.3166 10.9832 14.7071L9.41421 16.2761L8.70711 15.569Z" fill="#0D4DDF"/><path d="M13 12C13 11.4477 13.4477 11 14 11H16.5C17.0523 11 17.5 11.4477 17.5 12C17.5 12.5523 17.0523 13 16.5 13H14C13.4477 13 13 12.5523 13 12Z" fill="#0D4DDF"/><path d="M14 16C13.4477 16 13 16.4477 13 17C13 17.5523 13.4477 18 14 18H16.5C17.0523 18 17.5 17.5523 17.5 17C17.5 16.4477 17.0523 16 16.5 16H14Z" fill="#0D4DDF"/><path fill-rule="evenodd" clip-rule="evenodd" d="M7 2C5.34315 2 4 3.34315 4 5V19C4 20.6569 5.34315 22 7 22H17C18.6569 22 20 20.6569 20 19V5C20 3.34315 18.6569 2 17 2H7ZM6 5C6 4.44772 6.44772 4 7 4H8C8 5.65685 9.34315 7 11 7H13C14.6569 7 16 5.65685 16 4H17C17.5523 4 18 4.44772 18 5V19C18 19.5523 17.5523 20 17 20H7C6.44772 20 6 19.5523 6 19V5ZM14 4H10C10 4.55228 10.4477 5 11 5H13C13.5523 5 14 4.55228 14 4Z" fill="#0D4DDF"/></svg>